# xmcd
#
# Track frame offsets:
#	150
#	17695
#	32313
#	43708
#	56123
#	71428
#	87108
#	104000
#	122670
#	134588
#	150950
#	168708
#	184068
#	200688
#	215528
#	233175
#	247393
#	259825
#	271808
#
# Disc length: 3865 seconds
# Revision: 0
# Processed by: cddbd v1.5.2PL0 Copyright (c) Steve Scherf et al.
# Submitted via: dBpowerAMP V12.0
#
DISCID=150f1713
DTITLE=Various Artist - TM Century GoldDisc 2020N
DYEAR=1989
DGENRE=Country
TTITLE0=Restless Heart - Fast Movin' Train
TTITLE1=The Forester Sisters - Leave It Alone
TTITLE2=Patty Loveless - Chains
TTITLE3=Ricky Skaggs - Heartbreak Hurricane
TTITLE4=Exile - Keep It In The Middle Of The Road
TTITLE5=Paul Overstreet - Seein' My Father In Me
TTITLE6=Eddy Raven - Sooner Or Later
TTITLE7=Randy Travis - Hard Rock Bottom Of Your Heart
TTITLE8=Garth Brooks - Not Counting You
TTITLE9=Lorrie Morgan - Five Minutes
TTITLE10=Mary Chapin Carpenter - Quittin' Time
TTITLE11=Don Williams - Just As Long As I Have You
TTITLE12=Alan Jackson - Here In The Real World
TTITLE13=Ronnie Milsap - Stranger Things Have Happened
TTITLE14=Dan Seals - Love On Arrival
TTITLE15=Vince Gill with Reba McEntire - Oklahoma Swing
TTITLE16=Hank Williams, Jr. - Ain't Nobody's Business
TTITLE17=Highway 101 - Walkin', Talkin', Cryin', Barely Beating Broken Heart
TTITLE18=Travis Tritt - Help Me Hold On
EXTD=
EXTT0=
EXTT1=
EXTT2=
EXTT3=
EXTT4=
EXTT5=
EXTT6=
EXTT7=
EXTT8=
EXTT9=
EXTT10=
EXTT11=
EXTT12=
EXTT13=
EXTT14=
EXTT15=
EXTT16=
EXTT17=
EXTT18=
PLAYORDER=
